<?xml version="1.0" encoding="UTF-8"?>
<svg version="1.1" xmlns="http://www.w3.org/2000/svg" width="480" height="480">
<path d="M0 0 C23.38269174 -0.0934021 46.76535557 -0.16395902 70.14819622 -0.20724869 C81.0050295 -0.22788224 91.86174693 -0.25601806 102.71850586 -0.30175781 C112.18021321 -0.34160121 121.64183668 -0.36742704 131.1036256 -0.37635398 C136.11455055 -0.38157295 141.1252355 -0.39385598 146.1360836 -0.42292023 C150.85154582 -0.45004982 155.56666892 -0.45844995 160.28220177 -0.45243073 C162.01361941 -0.45353206 163.74504827 -0.4615006 165.47639847 -0.4768219 C167.83976022 -0.49671195 170.20184017 -0.49194358 172.56523132 -0.48101807 C173.25103781 -0.49266943 173.9368443 -0.5043208 174.6434328 -0.51632524 C179.36827764 -0.457249 181.6225377 0.76620317 185 4 C185.96486328 4.75603516 185.96486328 4.75603516 186.94921875 5.52734375 C187.52285156 5.99269531 188.09648437 6.45804687 188.6875 6.9375 C189.26886719 7.40027344 189.85023438 7.86304687 190.44921875 8.33984375 C194.82073375 13.01967719 194.27408951 18.7479005 194.22705078 24.74731445 C194.22734283 25.72340164 194.22763489 26.69948883 194.22793579 27.70515442 C194.22654482 30.92462112 194.21099438 34.14385508 194.1953125 37.36328125 C194.19158155 39.5981585 194.18873496 41.8330374 194.18673706 44.06791687 C194.1791071 49.9451653 194.15946398 55.82231461 194.1373291 61.69952393 C194.11685701 67.69875752 194.10773242 73.69800716 194.09765625 79.69726562 C194.07621757 91.46488726 194.04208922 103.23243538 194 115 C191.21892803 113.65155804 189.00226475 112.30511333 186.6875 110.25 C184.83707721 108.61094016 182.99268065 106.99414157 181.0625 105.44921875 C180.44375 104.95035156 179.825 104.45148438 179.1875 103.9375 C178.62417969 103.49277344 178.06085938 103.04804688 177.48046875 102.58984375 C176 101 176 101 175.16796875 98.703125 C173.54894365 94.95608363 171.02593779 92.62647922 168.125 89.8125 C167.59519531 89.27947266 167.06539063 88.74644531 166.51953125 88.19726562 C163.85953099 85.5735681 161.46381714 83.44191458 158 82 C157.67 81.67 157.34 81.34 157 81 C155.60856311 80.90456905 154.21231633 80.87811425 152.81761169 80.87974548 C151.91592255 80.87837082 151.0142334 80.87699615 150.08522034 80.87557983 C148.58981972 80.88097275 148.58981972 80.88097275 147.06420898 80.88647461 C146.02043091 80.88632858 144.97665283 80.88618256 143.90124512 80.8860321 C140.43284057 80.88673174 136.96448897 80.89452647 133.49609375 80.90234375 C131.09855682 80.90420775 128.7010195 80.90563174 126.30348206 80.90663147 C119.97904416 80.91045806 113.65462906 80.92028954 107.3302002 80.93133545 C100.88224598 80.94154655 94.43428809 80.94612844 87.98632812 80.95117188 C75.324209 80.96191168 62.66210571 80.97879881 50 81 C50.33 82.65 50.66 84.3 51 86 C51.99 86.33 52.98 86.66 54 87 C54.33 88.98 54.66 90.96 55 93 C55.99 93.33 56.98 93.66 58 94 C59.3515625 95.92578125 59.3515625 95.92578125 60.625 98.3125 C61.26308594 99.48232422 61.26308594 99.48232422 61.9140625 100.67578125 C62.90595664 102.79872016 63.4513346 104.73613734 64 107 C64.433125 107.433125 64.86625 107.86625 65.3125 108.3125 C68.87537449 111.87537449 70.7944682 116.17787279 72 121 C72.433125 121.433125 72.86625 121.86625 73.3125 122.3125 C76.87537449 125.87537449 78.7944682 130.17787279 80 135 C80.495 135.495 80.99 135.99 81.5 136.5 C83.30148695 138.30148695 83.39283903 139.57135613 84 142 C84.495 142.495 84.99 142.99 85.5 143.5 C87.30148695 145.30148695 87.39283903 146.57135613 88 149 C88.433125 149.433125 88.86625 149.86625 89.3125 150.3125 C94.12908762 155.12908762 95.88913455 160.34807326 96 167 C94.625 168.75 94.625 168.75 93 170 C92.85175781 170.598125 92.70351563 171.19625 92.55078125 171.8125 C91.92369063 174.30307269 90.91962629 176.07537627 89.5625 178.25 C89.13066406 178.95640625 88.69882812 179.6628125 88.25390625 180.390625 C87.63322266 181.18726563 87.63322266 181.18726563 87 182 C86.34 182 85.68 182 85 182 C84.9175 182.86625 84.835 183.7325 84.75 184.625 C83.88642716 188.51107778 82.44749984 190.88500021 80 194 C79.34 194 78.68 194 78 194 C77.9175 194.86625 77.835 195.7325 77.75 196.625 C76.88642716 200.51107778 75.44749984 202.88500021 73 206 C72.34 206 71.68 206 71 206 C70.9175 206.680625 70.835 207.36125 70.75 208.0625 C69.77667472 211.8746907 68.04192545 214.64070329 66 218 C65.34 218 64.68 218 64 218 C63.9175 218.680625 63.835 219.36125 63.75 220.0625 C62.77667472 223.8746907 61.04192545 226.64070329 59 230 C58.34 230 57.68 230 57 230 C56.9175 230.680625 56.835 231.36125 56.75 232.0625 C55.77667472 235.8746907 54.04192545 238.64070329 52 242 C51.34 242 50.68 242 50 242 C49.67 243.65 49.34 245.3 49 247 C46.36328125 247.578125 46.36328125 247.578125 43 247 C40.54851536 244.21324927 38.91677833 241.01878674 37.1875 237.75 C36.69830078 236.87730469 36.20910156 236.00460937 35.70507812 235.10546875 C32.14069474 228.64718074 32.14069474 228.64718074 31.54418945 225.90332031 C30.86594515 223.53113881 29.77003713 222.69230081 28 221 C26.99463121 219.44582583 26.03763644 217.859832 25.1171875 216.25390625 C24.58996094 215.33416016 24.06273437 214.41441406 23.51953125 213.46679688 C22.97683594 212.50837891 22.43414062 211.54996094 21.875 210.5625 C21.32457031 209.60794922 20.77414062 208.65339844 20.20703125 207.66992188 C19.68238281 206.74888672 19.15773438 205.82785156 18.6171875 204.87890625 C17.89958252 203.61929077 17.89958252 203.61929077 17.16748047 202.33422852 C16.09665927 200.1932579 15.55532276 198.30922238 15 196 C14.505 195.505 14.01 195.01 13.5 194.5 C11.69851305 192.69851305 11.60716097 191.42864387 11 189 C9.54166642 187.37485532 9.54166642 187.37485532 8 186 C7.67 185.34 7.34 184.68 7 184 C5.06440687 183.86495862 3.126128 183.76798871 1.1875 183.6875 C0.10855469 183.62949219 -0.97039062 183.57148438 -2.08203125 183.51171875 C-3.04496094 183.67285156 -4.00789063 183.83398438 -5 184 C-6.79763674 186.43976266 -6.79763674 186.43976266 -8 189 C-8.66 189 -9.32 189 -10 189 C-10.495 191.97 -10.495 191.97 -11 195 C-11.99 195.33 -12.98 195.66 -14 196 C-14.495 198.97 -14.495 198.97 -15 202 C-15.99 202.33 -16.98 202.66 -18 203 C-18.495 205.97 -18.495 205.97 -19 209 C-19.99 209.33 -20.98 209.66 -22 210 C-22.495 212.97 -22.495 212.97 -23 216 C-23.99 216.33 -24.98 216.66 -26 217 C-26.495 219.97 -26.495 219.97 -27 223 C-27.99 223.33 -28.98 223.66 -30 224 C-30.07347656 224.82757813 -30.14695313 225.65515625 -30.22265625 226.5078125 C-31.19839997 230.89130439 -33.09279741 234.08825028 -35.4375 237.875 C-35.84548828 238.56335938 -36.25347656 239.25171875 -36.67382812 239.9609375 C-37.71957747 241.68053839 -38.85319618 243.34607742 -40 245 C-40.66 245 -41.32 245 -42 245 C-42.33 245.66 -42.66 246.32 -43 247 C-46 246 -46 246 -48 244 C-48.4937915 243.53577637 -48.98758301 243.07155273 -49.49633789 242.59326172 C-51.02837937 240.96992958 -51.9998296 239.4666697 -53.05859375 237.5078125 C-53.62743286 236.46753906 -53.62743286 236.46753906 -54.20776367 235.40625 C-54.61357666 234.6534375 -55.01938965 233.900625 -55.4375 233.125 C-56.33739799 231.48114423 -57.23848706 229.83794006 -58.140625 228.1953125 C-58.61048828 227.3384082 -59.08035156 226.48150391 -59.56445312 225.59863281 C-61.89746254 221.37540965 -64.28997322 217.18683972 -66.6875 213 C-67.17379883 212.14881592 -67.66009766 211.29763184 -68.16113281 210.4206543 C-70.76149139 205.87751343 -73.37809258 201.34432126 -76.01554871 196.82260132 C-77.40167469 194.44574465 -78.7844829 192.06696359 -80.16738892 189.68823242 C-81.17064327 187.96642982 -82.17939271 186.24783286 -83.18823242 184.52929688 C-83.80029541 183.47677734 -84.4123584 182.42425781 -85.04296875 181.33984375 C-85.58977295 180.40519287 -86.13657715 179.47054199 -86.69995117 178.50756836 C-87.85390521 176.28179147 -88.43898433 174.41618863 -89 172 C-89.474375 171.5875 -89.94875 171.175 -90.4375 170.75 C-92.9354439 167.95230283 -93.72596267 164.70671545 -94 161 C-92.75 158 -92.75 158 -91 156 C-90.34 156 -89.68 156 -89 156 C-88.67 154.02 -88.34 152.04 -88 150 C-87.01 149.67 -86.02 149.34 -85 149 C-84.67 147.02 -84.34 145.04 -84 143 C-83.01 142.67 -82.02 142.34 -81 142 C-80.67 140.02 -80.34 138.04 -80 136 C-79.01 135.67 -78.02 135.34 -77 135 C-76.505 132.03 -76.505 132.03 -76 129 C-75.01 128.67 -74.02 128.34 -73 128 C-72.67 126.02 -72.34 124.04 -72 122 C-70.515 121.505 -70.515 121.505 -69 121 C-68.67 119.02 -68.34 117.04 -68 115 C-66.515 114.505 -66.515 114.505 -65 114 C-64.67 112.02 -64.34 110.04 -64 108 C-62.515 107.505 -62.515 107.505 -61 107 C-60.67 105.02 -60.34 103.04 -60 101 C-59.01 100.67 -58.02 100.34 -57 100 C-56.67 98.02 -56.34 96.04 -56 94 C-55.01 93.67 -54.02 93.34 -53 93 C-52.67 91.02 -52.34 89.04 -52 87 C-51.01 86.67 -50.02 86.34 -49 86 C-48.67 84.02 -48.34 82.04 -48 80 C-47.01 79.67 -46.02 79.34 -45 79 C-44.67 77.02 -44.34 75.04 -44 73 C-43.01 72.67 -42.02 72.34 -41 72 C-40.67 70.02 -40.34 68.04 -40 66 C-39.01 65.67 -38.02 65.34 -37 65 C-36.67 63.02 -36.34 61.04 -36 59 C-35.01 58.67 -34.02 58.34 -33 58 C-32.67 56.02 -32.34 54.04 -32 52 C-31.01 51.67 -30.02 51.34 -29 51 C-28.67 49.02 -28.34 47.04 -28 45 C-27.01 44.67 -26.02 44.34 -25 44 C-24.67 42.02 -24.34 40.04 -24 38 C-23.01 37.67 -22.02 37.34 -21 37 C-20.67 35.02 -20.34 33.04 -20 31 C-19.01 30.67 -18.02 30.34 -17 30 C-16.67 28.02 -16.34 26.04 -16 24 C-15.01 23.67 -14.02 23.34 -13 23 C-12.67 21.02 -12.34 19.04 -12 17 C-11.01 16.67 -10.02 16.34 -9 16 C-8.67 14.02 -8.34 12.04 -8 10 C-7.01 9.67 -6.02 9.34 -5 9 C-4.67 7.02 -4.34 5.04 -4 3 C-3.01 2.67 -2.02 2.34 -1 2 C-0.67 1.34 -0.34 0.68 0 0 Z M46 78 C47.76485693 80.17810587 47.76485693 80.17810587 49.96400642 80.23047829 C50.77334066 80.22126036 51.5826749 80.21204243 52.41653442 80.20254517 C53.3448407 80.19688034 54.27314697 80.19121552 55.22958374 80.18537903 C56.76166977 80.16056709 56.76166977 80.16056709 58.32470703 80.13525391 C59.39789185 80.12579239 60.47107666 80.11633087 61.57678223 80.10658264 C65.13729524 80.07280412 68.69746722 80.02471618 72.2578125 79.9765625 C74.72117207 79.9504058 77.18454122 79.92513796 79.6479187 79.90072632 C86.14178568 79.83397337 92.63545187 79.75510259 99.12915039 79.67376709 C105.75138701 79.59294643 112.37373853 79.52350451 118.99609375 79.453125 C131.99753621 79.31326393 144.99880297 79.16099599 158 79 C158 78.67 158 78.34 158 78 C121.04 78 84.08 78 46 78 Z M0 94 C-0.40839111 94.7520874 -0.81678223 95.5041748 -1.23754883 96.27905273 C-2.75645002 99.06560992 -4.28365087 101.84739827 -5.81665039 104.6262207 C-6.47855012 105.83010257 -7.13710438 107.03583008 -7.79223633 108.2434082 C-8.73418892 109.9782838 -9.68918794 111.70605585 -10.64453125 113.43359375 C-11.21534424 114.47572021 -11.78615723 115.51784668 -12.37426758 116.59155273 C-14 119 -14 119 -17 120 C-17.08121094 120.83917969 -17.16242188 121.67835938 -17.24609375 122.54296875 C-18.15432717 126.70766606 -19.86616924 129.70505518 -22.0625 133.3125 C-24.68460192 136.99323255 -24.68460192 136.99323255 -26 141 C-16.89221457 142.27013555 -16.89221457 142.27013555 -8.7734375 139.20703125 C-7.24182912 136.86249226 -6.08246842 134.58030262 -5 132 C-4.37976092 130.81000641 -3.75561258 129.62202903 -3.125 128.4375 C-2.75375 127.633125 -2.3825 126.82875 -2 126 C-0.02 126 1.96 126 4 126 C4.84884766 127.49853516 4.84884766 127.49853516 5.71484375 129.02734375 C6.4556442 130.33077746 7.19653425 131.63416025 7.9375 132.9375 C8.49727539 133.9265332 8.49727539 133.9265332 9.06835938 134.93554688 C10.76962813 138.15832833 10.76962813 138.15832833 13 141 C15.53049402 141.07313567 18.03304837 141.09247527 20.5625 141.0625 C21.27341797 141.05798828 21.98433594 141.05347656 22.71679688 141.04882812 C24.47790013 141.03700864 26.23896036 141.01907263 28 141 C24.35481857 133.51551506 20.70029693 126.1820089 16.1640625 119.18359375 C14.88751495 116.78899616 14.40375231 114.67133796 14 112 C13.34 112 12.68 112 12 112 C7.05 103.09 7.05 103.09 2 94 C1.34 94 0.68 94 0 94 Z M-29 142 C-29 142.33 -29 142.66 -29 143 C-22.73 143 -16.46 143 -10 143 C-10 142.67 -10 142.34 -10 142 C-16.27 142 -22.54 142 -29 142 Z M12 142 C12 142.33 12 142.66 12 143 C18.27 143 24.54 143 31 143 C31 142.67 31 142.34 31 142 C24.73 142 18.46 142 12 142 Z M-6 181 C-6 181.33 -6 181.66 -6 182 C-1.38 182 3.24 182 8 182 C8 181.67 8 181.34 8 181 C3.38 181 -1.24 181 -6 181 Z M-7 182 C-6 184 -6 184 -6 184 Z " fill="#5F82FC" transform="translate(239,96)"/>
<path d="M0 0 C0.99 1.98 0.99 1.98 2 4 C1.01 4.33 0.02 4.66 -1 5 C-1.33 6.98 -1.66 8.96 -2 11 C-2.99 11.33 -3.98 11.66 -5 12 C-5.33 13.98 -5.66 15.96 -6 18 C-6.99 18.33 -7.98 18.66 -9 19 C-9.061875 19.825 -9.12375 20.65 -9.1875 21.5 C-10.21141456 25.91070886 -12.13577812 29.48441302 -15 33 C-15.66 33 -16.32 33 -17 33 C-17.33 34.98 -17.66 36.96 -18 39 C-18.99 39.33 -19.98 39.66 -21 40 C-21.33 41.98 -21.66 43.96 -22 46 C-22.99 46.33 -23.98 46.66 -25 47 C-25.33 48.98 -25.66 50.96 -26 53 C-26.99 53.33 -27.98 53.66 -29 54 C-29.33 55.98 -29.66 57.96 -30 60 C-30.99 60.33 -31.98 60.66 -33 61 C-33.33 62.98 -33.66 64.96 -34 67 C-34.99 67.33 -35.98 67.66 -37 68 C-37.33 69.98 -37.66 71.96 -38 74 C-38.99 74.33 -39.98 74.66 -41 75 C-43.10462776 77.76373208 -43.10462776 77.76373208 -44 81 C-45.19603348 81.00586624 -46.39206696 81.01173248 -47.62434387 81.01777649 C-58.88139373 81.07492425 -70.13824893 81.14764402 -81.39510059 81.23571491 C-87.18273853 81.28049266 -92.97030485 81.31973241 -98.75805664 81.34643555 C-104.34081758 81.37239467 -109.92330406 81.41274445 -115.50589561 81.46318626 C-117.63856283 81.4799051 -119.77127757 81.49138802 -121.90400124 81.49761391 C-124.88526998 81.50720051 -127.86582853 81.53519431 -130.84692383 81.56762695 C-132.17725143 81.56547432 -132.17725143 81.56547432 -133.53445435 81.5632782 C-134.75227852 81.58208542 -134.75227852 81.58208542 -135.9947052 81.60127258 C-136.69987683 81.60588155 -137.40504847 81.61049051 -138.13158894 81.61523914 C-140.53730826 82.11064759 -141.37339648 83.2157561 -143 85 C-144.33257451 85.33635406 -145.66593158 85.66962093 -147 86 C-148.76465639 87.32296017 -148.76465639 87.32296017 -150.3828125 89.01953125 C-150.99253906 89.62990234 -151.60226563 90.24027344 -152.23046875 90.86914062 C-153.16826172 91.83110352 -153.16826172 91.83110352 -154.125 92.8125 C-154.75792969 93.44220703 -155.39085937 94.07191406 -156.04296875 94.72070312 C-158.98704113 97.69915427 -161.20570747 100.19069237 -163 104 C-165.18309018 106.67924703 -166.72780489 107.18195122 -170 108 C-171.0194119 108.98020375 -172.02246356 109.97803008 -173 111 C-173.66 111 -174.32 111 -175 111 C-175.19446152 98.72486719 -175.31210923 86.4515558 -175.33421898 74.1748333 C-175.34684837 68.47267053 -175.38499973 62.7731562 -175.48339844 57.07177734 C-175.57756253 51.55950584 -175.60217535 46.05074353 -175.58046341 40.53775406 C-175.58407721 38.44465739 -175.61191121 36.35144519 -175.66541672 34.25902939 C-175.90326344 24.39375119 -175.82381683 14.59941775 -169.17382812 6.70117188 C-158.57974576 -3.51566265 -139.91231863 -0.85067527 -126.27183008 -0.62144423 C-121.82490971 -0.56161303 -117.37832757 -0.58183464 -112.93112183 -0.59317017 C-104.53004701 -0.60262176 -96.13108111 -0.54121561 -87.73051822 -0.45364916 C-78.15844446 -0.35737317 -68.58674199 -0.34115091 -59.01425004 -0.3312881 C-39.34196742 -0.30924459 -19.67135284 -0.1878544 0 0 Z " fill="#5E81FA" transform="translate(222,95)"/>
<path d="M0 0 C2.78107197 1.34844196 4.99773525 2.69488667 7.3125 4.75 C9.16292279 6.38905984 11.00731935 8.00585843 12.9375 9.55078125 C13.55625 10.04964844 14.175 10.54851562 14.8125 11.0625 C15.37582031 11.50722656 15.93914063 11.95195312 16.51953125 12.41015625 C18 14 18 14 18.83203125 16.296875 C20.45105635 20.04391637 22.97406221 22.37352078 25.875 25.1875 C26.40480469 25.72052734 26.93460938 26.25355469 27.48046875 26.80273438 C30.14046901 29.4264319 32.53618286 31.55808542 36 33 C36.33 33.33 36.66 33.66 37 34 C39.59153107 34.15996166 42.1595202 34.25938697 44.75390625 34.31640625 C45.52935287 34.33718735 46.3047995 34.35796844 47.10374451 34.37937927 C49.58990308 34.44495802 52.07617045 34.50379799 54.5625 34.5625 C56.24415204 34.60567733 57.92579294 34.64929136 59.60742188 34.69335938 C63.73816871 34.80064779 67.86902536 34.90189132 72 35 C72.33 34.01 72.66 33.02 73 32 C73.66 32 74.32 32 75 32 C75.33 30.02 75.66 28.04 76 26 C76.99 25.67 77.98 25.34 79 25 C79.33 23.02 79.66 21.04 80 19 C80.99 18.67 81.98 18.34 83 18 C83.33 16.02 83.66 14.04 84 12 C84.99 11.67 85.98 11.34 87 11 C87.33 9.02 87.66 7.04 88 5 C90.31 5 92.62 5 95 5 C96.96297379 8.55996182 98.91955438 12.12339831 100.875 15.6875 C101.43058594 16.69490234 101.98617187 17.70230469 102.55859375 18.74023438 C103.36103516 20.20493164 103.36103516 20.20493164 104.1796875 21.69921875 C104.91807861 23.04246216 104.91807861 23.04246216 105.67138672 24.4128418 C106.94808232 26.89890267 107.99349885 29.39501976 109 32 C109.87694783 34.05151021 109.87694783 34.05151021 111.5 35.375 C113.24206653 37.26223874 113.38771408 38.55085631 114 41 C114.495 41.495 114.99 41.99 115.5 42.5 C117.30148695 44.30148695 117.39283903 45.57135613 118 48 C118.433125 48.433125 118.86625 48.86625 119.3125 49.3125 C122.87537449 52.87537449 124.7944682 57.17787279 126 62 C126.495 62.495 126.99 62.99 127.5 63.5 C129.30148695 65.30148695 129.39283903 66.57135613 130 69 C130.7425 69.7425 130.7425 69.7425 131.5 70.5 C133.30148695 72.30148695 133.39283903 73.57135613 134 76 C134.7425 76.7425 134.7425 76.7425 135.5 77.5 C137.30148695 79.30148695 137.39283903 80.57135613 138 83 C138.515625 83.45375 139.03125 83.9075 139.5625 84.375 C141 86 141 86 141.1875 89.1875 C141.125625 90.115625 141.06375 91.04375 141 92 C140.01 92.33 139.02 92.66 138 93 C137.938125 93.825 137.87625 94.65 137.8125 95.5 C136.78858544 99.91070886 134.86422188 103.48441302 132 107 C131.34 107 130.68 107 130 107 C129.9175 107.94875 129.835 108.8975 129.75 109.875 C129 113 129 113 127.23034286 114.17355156 C124.86735192 115.04915244 123.07737666 115.28593571 120.56451416 115.34817505 C119.24047829 115.38698288 119.24047829 115.38698288 117.88969421 115.42657471 C116.92868301 115.44452087 115.96767181 115.46246704 114.97753906 115.48095703 C113.95902359 115.50694977 112.94050812 115.5329425 111.89112854 115.5597229 C101.21652167 115.81369273 90.53876591 115.92675812 79.86181641 116.02978516 C74.8069621 116.08313839 69.75591597 116.18037921 64.70263672 116.31689453 C58.58317538 116.48176405 52.46731808 116.56629536 46.34575653 116.59591293 C44.02517051 116.62025562 41.70468885 116.67197058 39.38538361 116.75281143 C20.28856614 117.38474863 20.28856614 117.38474863 13.00915527 111.36224365 C9.48556994 108.01653525 6.35062387 104.42623636 3.41532516 100.55636406 C1.9780277 98.72094628 1.9780277 98.72094628 -1 98 C-0.83734146 96.70457779 -0.67468292 95.40915558 -0.50709534 94.07447815 C0.02063081 89.30164396 0.13509124 84.60620808 0.11352539 79.80834961 C0.11367142 78.93896759 0.11381744 78.06958557 0.1139679 77.17385864 C0.11327767 74.33332726 0.10552741 71.49286351 0.09765625 68.65234375 C0.0957889 66.66980526 0.0943665 64.6872663 0.09336853 62.70472717 C0.08956829 57.5114716 0.07975952 52.31824443 0.06866455 47.125 C0.0583966 41.81575912 0.05385942 36.5065136 0.04882812 31.19726562 C0.03813481 20.79816467 0.02108863 10.39908471 0 0 Z M36 36 C36 36.33 36 36.66 36 37 C48.21 37 60.42 37 73 37 C73 36.67 73 36.34 73 36 C60.79 36 48.58 36 36 36 Z " fill="#5E81FA" transform="translate(47,269)"/>
<path d="M0 0 C0.75796875 0.09539062 1.5159375 0.19078125 2.296875 0.2890625 C3.296875 2.2890625 4.296875 4.2890625 5.296875 6.2890625 C5.791875 6.7428125 6.286875 7.1965625 6.796875 7.6640625 C8.53894153 9.55130124 8.68458908 10.83991881 9.296875 13.2890625 C9.791875 13.7840625 10.286875 14.2790625 10.796875 14.7890625 C12.59836195 16.59054945 12.68971403 17.86041863 13.296875 20.2890625 C13.791875 20.7840625 14.286875 21.2790625 14.796875 21.7890625 C16.59836195 23.59054945 16.68971403 24.86041863 17.296875 27.2890625 C18.27707875 28.3084744 19.27490508 29.31152606 20.296875 30.2890625 C20.296875 30.9490625 20.296875 31.6090625 20.296875 32.2890625 C25.04827809 32.26961298 29.7978365 32.21781149 34.54858398 32.13647461 C36.16339049 32.11332964 37.77834721 32.09890707 39.39331055 32.09350586 C41.72018648 32.08418976 44.04471176 32.04314882 46.37109375 31.99609375 C47.08899582 32.0000264 47.80689789 32.00395905 48.54655457 32.00801086 C52.49070687 31.89413142 54.07259179 31.49180495 57.04223633 28.80737305 C57.78626709 27.97633057 58.53029785 27.14528809 59.296875 26.2890625 C61.39794922 25.6652832 61.39794922 25.6652832 63.296875 25.2890625 C65.06153139 23.96610233 65.06153139 23.96610233 66.6796875 22.26953125 C67.28941406 21.65916016 67.89914062 21.04878906 68.52734375 20.41992188 C69.15253906 19.77861328 69.77773438 19.13730469 70.421875 18.4765625 C71.05480469 17.84685547 71.68773437 17.21714844 72.33984375 16.56835938 C75.29022199 13.58352873 77.47474952 11.08813142 79.296875 7.2890625 C81.84323338 4.31831106 83.47642627 3.00539664 87.296875 2.2890625 C88.6399375 1.6422199 89.97474155 0.97767367 91.296875 0.2890625 C91.29465439 1.05516342 91.29243378 1.82126434 91.29014587 2.61058044 C91.26970456 10.00252021 91.2546856 17.39444539 91.24506283 24.78640652 C91.23994872 28.58230783 91.23307423 32.37818491 91.22143555 36.17407227 C91.21028829 39.84846827 91.20429678 43.52284242 91.20174026 47.19725418 C91.20005701 48.67448807 91.19683587 50.15172099 91.19208908 51.62894821 C91.16785816 59.98096294 91.30212314 68.2894591 91.77001953 76.62939453 C91.84728247 78.14679908 91.92423733 79.66421936 92.00086975 81.18165588 C92.14653568 84.04188425 92.3393132 86.89355162 92.55955505 89.74888611 C93.04608471 99.00537342 93.04608471 99.00537342 90.87911987 102.7182312 C87.85986678 105.90165136 85.51677558 107.26260572 81.296875 108.2890625 C80.636875 108.9490625 79.976875 109.6090625 79.296875 110.2890625 C77.29718971 110.54074478 77.29718971 110.54074478 74.79336548 110.54302979 C73.37171333 110.55148926 73.37171333 110.55148926 71.92134094 110.56011963 C70.87818222 110.55607117 69.8350235 110.55202271 68.76025391 110.54785156 C67.11622337 110.55310852 67.11622337 110.55310852 65.4389801 110.55847168 C61.80040227 110.56730476 58.16201746 110.5614334 54.5234375 110.5546875 C52.00239016 110.55603389 49.48134308 110.5579742 46.96029663 110.56048584 C41.6691416 110.5634394 36.37805624 110.5593225 31.08691406 110.54980469 C24.97141751 110.53893096 18.85605442 110.542437 12.74056113 110.5534575 C6.85872069 110.56363253 0.97692168 110.5625481 -4.9049263 110.55669403 C-7.40801639 110.55535795 -9.91110988 110.55700381 -12.41419601 110.56165314 C-15.91212777 110.56672298 -19.40980228 110.55900085 -22.90771484 110.54785156 C-23.9468251 110.55190002 -24.98593536 110.55594849 -26.05653381 110.56011963 C-27.00994156 110.55447998 -27.9633493 110.54884033 -28.94564819 110.54302979 C-29.77266424 110.54227573 -30.59968029 110.54152168 -31.45175743 110.54074478 C-33.97335954 110.25885275 -35.55645279 109.62737416 -37.703125 108.2890625 C-40.31863776 104.71187949 -42.36249287 100.78359549 -44.515625 96.9140625 C-45.12599609 95.85960937 -45.73636719 94.80515625 -46.36523438 93.71875 C-47.2227832 92.19507813 -47.2227832 92.19507813 -48.09765625 90.640625 C-48.62206299 89.71072754 -49.14646973 88.78083008 -49.68676758 87.82275391 C-50.82818568 84.97729701 -50.84981785 84.07256404 -49.703125 81.2890625 C-48.38976605 78.48155108 -46.84583042 75.80317421 -45.328125 73.1015625 C-44.92851562 72.36486328 -44.52890625 71.62816406 -44.1171875 70.86914062 C-43.529375 69.81823242 -43.529375 69.81823242 -42.9296875 68.74609375 C-42.57471191 68.10647705 -42.21973633 67.46686035 -41.85400391 66.80786133 C-40.703125 65.2890625 -40.703125 65.2890625 -37.703125 64.2890625 C-37.61289062 63.42796875 -37.52265625 62.566875 -37.4296875 61.6796875 C-36.59825066 57.79964891 -35.19889653 55.39099354 -33.078125 52.0390625 C-29.89514583 46.94280247 -26.82919336 41.79492798 -23.875 36.5625 C-23.2013435 35.37401841 -22.52767809 34.18554188 -21.85400391 32.99707031 C-20.84044573 31.20782178 -19.82986667 29.41718367 -18.82781982 27.62145996 C-17.88041037 25.92531516 -16.92089811 24.23594797 -15.9609375 22.546875 C-15.4055127 21.5583252 -14.85008789 20.56977539 -14.27783203 19.55126953 C-12.703125 17.2890625 -12.703125 17.2890625 -9.703125 16.2890625 C-9.661875 15.5053125 -9.620625 14.7215625 -9.578125 13.9140625 C-8.33844111 8.77822923 -5.8937012 0.63025128 0 0 Z M-16.703125 26.2890625 C-15.703125 28.2890625 -15.703125 28.2890625 -15.703125 28.2890625 Z M19.296875 33.2890625 C19.296875 33.6190625 19.296875 33.9490625 19.296875 34.2890625 C30.846875 34.2890625 42.396875 34.2890625 54.296875 34.2890625 C54.296875 33.9590625 54.296875 33.6290625 54.296875 33.2890625 C42.746875 33.2890625 31.196875 33.2890625 19.296875 33.2890625 Z M-23.703125 38.2890625 C-22.703125 40.2890625 -22.703125 40.2890625 -22.703125 40.2890625 Z M-30.703125 50.2890625 C-29.703125 52.2890625 -29.703125 52.2890625 -29.703125 52.2890625 Z M-44.703125 74.2890625 C-43.703125 76.2890625 -43.703125 76.2890625 -43.703125 76.2890625 Z M-49.703125 83.2890625 C-48.703125 85.2890625 -48.703125 85.2890625 -48.703125 85.2890625 Z " fill="#5E81FA" transform="translate(341.703125,273.7109375)"/>
<path d="M0 0 C0.33 0 0.66 0 1 0 C1 22.77 1 45.54 1 69 C0.67 69 0.34 69 0 69 C0 46.23 0 23.46 0 0 Z " fill="#0021FF" transform="translate(46,113)"/>
<path d="M0 0 C0.33 0 0.66 0 1 0 C1 20.46 1 40.92 1 62 C0.67 62 0.34 62 0 62 C0 41.54 0 21.08 0 0 Z " fill="#0000FF" transform="translate(434,111)"/>
<path d="M0 0 C0.33 0 0.66 0 1 0 C1 15.84 1 31.68 1 48 C0.67 48 0.34 48 0 48 C0 32.16 0 16.32 0 0 Z " fill="#0000E4" transform="translate(434,324)"/>
<path d="M0 0 C0.33 0 0.66 0 1 0 C1 12.87 1 25.74 1 39 C0.67 39 0.34 39 0 39 C0 26.13 0 13.26 0 0 Z " fill="#0000FF" transform="translate(46,293)"/>
<path d="M0 0 C0.33 0 0.66 0 1 0 C1 9.24 1 18.48 1 28 C0.67 28 0.34 28 0 28 C0 18.76 0 9.52 0 0 Z " fill="#0000DA" transform="translate(434,275)"/>
<path d="M0 0 C1.65 1.65 3.3 3.3 5 5 C4.34 5 3.68 5 3 5 C2.67 5.66 2.34 6.32 2 7 C0.35 5.02 -1.3 3.04 -3 1 C-2.01 0.67 -1.02 0.34 0 0 Z " fill="#4F87FC" transform="translate(80,300)"/>
<path d="M0 0 C0.99 0.33 1.98 0.66 3 1 C3 4 3 7 3 10 C2.01 10.495 2.01 10.495 1 11 C0.67 7.37 0.34 3.74 0 0 Z " fill="#5267FB" transform="translate(47,269)"/>
<path d="M0 0 C0.66 0.33 1.32 0.66 2 1 C2.125 4.375 2.125 4.375 2 8 C1.34 8.66 0.68 9.32 0 10 C-0.74926071 6.33694766 -1.2380014 3.57644848 0 0 Z " fill="#7186FC" transform="translate(431,165)"/>
<path d="M0 0 C1.17539996 0.92652701 2.34010577 1.86663387 3.5 2.8125 C4.1496875 3.33457031 4.799375 3.85664063 5.46875 4.39453125 C7 6 7 6 7 9 C6.566875 8.525625 6.13375 8.05125 5.6875 7.5625 C3.97690387 5.76313043 3.97690387 5.76313043 1 5 C0.67 3.35 0.34 1.7 0 0 Z " fill="#3F62E7" transform="translate(58,277)"/>
<path d="M0 0 C0.99 0.99 1.98 1.98 3 3 C1.35 4.65 -0.3 6.3 -2 8 C-2.66 7.67 -3.32 7.34 -4 7 C-3.525625 6.5875 -3.05125 6.175 -2.5625 5.75 C-0.83733482 3.817815 -0.43415125 2.51807725 0 0 Z " fill="#437EFE" transform="translate(58,194)"/>
<path d="M0 0 C0.33 0 0.66 0 1 0 C1 4.95 1 9.9 1 15 C0.67 15 0.34 15 0 15 C0 10.05 0 5.1 0 0 Z " fill="#000088" transform="translate(434,195)"/>
<path d="M0 0 C0.33 0 0.66 0 1 0 C1 2.97 1 5.94 1 9 C0.67 9 0.34 9 0 9 C0 6.03 0 3.06 0 0 Z " fill="#0000FF" transform="translate(45,356)"/>
<path d="M0 0 C0.33 0 0.66 0 1 0 C1 2.97 1 5.94 1 9 C0.67 9 0.34 9 0 9 C0 6.03 0 3.06 0 0 Z " fill="#0000E2" transform="translate(45,196)"/>
<path d="M0 0 C0.33 0 0.66 0 1 0 C1 2.64 1 5.28 1 8 C0.67 8 0.34 8 0 8 C0 5.36 0 2.72 0 0 Z " fill="#0000DF" transform="translate(45,270)"/>
<path d="M0 0 C0.99 0.99 1.98 1.98 3 3 C2.01 2.67 1.02 2.34 0 2 C0 1.34 0 0.68 0 0 Z " fill="#3755FF" transform="translate(61,381)"/>
<path d="M0 0 C1 4 1 4 1 4 Z " fill="#0000FF" transform="translate(46,287)"/>
<path d="M0 0 C0.99 0.495 0.99 0.495 2 1 C1.01 1.495 1.01 1.495 0 2 C0 1.34 0 0.68 0 0 Z " fill="#2A55FF" transform="translate(403,298)"/>
<path d="M0 0 C0.33 0.66 0.66 1.32 1 2 C0.34 1.67 -0.32 1.34 -1 1 C-0.67 0.67 -0.34 0.34 0 0 Z " fill="#2A55AA" transform="translate(76,180)"/>
<path d="" fill="#6A6AFF" transform="translate(0,0)"/>
<path d="" fill="#6A6AFF" transform="translate(0,0)"/>
<path d="" fill="#40BFFF" transform="translate(0,0)"/>
<path d="" fill="#6A6AFF" transform="translate(0,0)"/>
<path d="M0 0 C2 1 2 1 2 1 Z " fill="#BFBFFF" transform="translate(284,344)"/>
<path d="M0 0 C2 1 2 1 2 1 Z " fill="#40BFFF" transform="translate(194,344)"/>
<path d="" fill="#5555FF" transform="translate(0,0)"/>
<path d="" fill="#8080FF" transform="translate(0,0)"/>
<path d="" fill="#6AAAFF" transform="translate(0,0)"/>
<path d="" fill="#5555FF" transform="translate(0,0)"/>
<path d="" fill="#6A6AFF" transform="translate(0,0)"/>
<path d="" fill="#6AAAD4" transform="translate(0,0)"/>
<path d="" fill="#5555FF" transform="translate(0,0)"/>
<path d="" fill="#6A6AFF" transform="translate(0,0)"/>
<path d="" fill="#6A6AFF" transform="translate(0,0)"/>
<path d="" fill="#6A6AFF" transform="translate(0,0)"/>
<path d="" fill="#5555FF" transform="translate(0,0)"/>
<path d="" fill="#6A6AFF" transform="translate(0,0)"/>
<path d="" fill="#557FFF" transform="translate(0,0)"/>
<path d="" fill="#5555D4" transform="translate(0,0)"/>
<path d="" fill="#6AAAFF" transform="translate(0,0)"/>
<path d="" fill="#6A6AFF" transform="translate(0,0)"/>
<path d="" fill="#5555D4" transform="translate(0,0)"/>
<path d="" fill="#6A6AFF" transform="translate(0,0)"/>
<path d="" fill="#6A6AFF" transform="translate(0,0)"/>
<path d="" fill="#5555D4" transform="translate(0,0)"/>
<path d="" fill="#6A6AFF" transform="translate(0,0)"/>
<path d="" fill="#6A6AFF" transform="translate(0,0)"/>
<path d="" fill="#5555D4" transform="translate(0,0)"/>
<path d="" fill="#5555D4" transform="translate(0,0)"/>
<path d="" fill="#6A6AFF" transform="translate(0,0)"/>
<path d="" fill="#6A6AFF" transform="translate(0,0)"/>
<path d="" fill="#6A6AFF" transform="translate(0,0)"/>
<path d="" fill="#557FFF" transform="translate(0,0)"/>
<path d="" fill="#557FFF" transform="translate(0,0)"/>
<path d="" fill="#6A6AD4" transform="translate(0,0)"/>
<path d="" fill="#6A95FF" transform="translate(0,0)"/>
<path d="" fill="#6A6AFF" transform="translate(0,0)"/>
<path d="" fill="#6A95D4" transform="translate(0,0)"/>
<path d="M0 0 C2 1 2 1 2 1 Z " fill="#0000FF" transform="translate(341,272)"/>
<path d="M0 0 C2 1 2 1 2 1 Z " fill="#007FFF" transform="translate(137,272)"/>
<path d="" fill="#5555FF" transform="translate(0,0)"/>
<path d="" fill="#557FFF" transform="translate(0,0)"/>
<path d="" fill="#557FFF" transform="translate(0,0)"/>
<path d="" fill="#8080FF" transform="translate(0,0)"/>
<path d="" fill="#6A6AD4" transform="translate(0,0)"/>
<path d="" fill="#6A95FF" transform="translate(0,0)"/>
<path d="" fill="#557FFF" transform="translate(0,0)"/>
<path d="" fill="#5555FF" transform="translate(0,0)"/>
<path d="" fill="#5555FF" transform="translate(0,0)"/>
<path d="" fill="#6A6AFF" transform="translate(0,0)"/>
<path d="" fill="#6A6AFF" transform="translate(0,0)"/>
<path d="" fill="#5555FF" transform="translate(0,0)"/>
<path d="M0 0 C2 1 2 1 2 1 Z " fill="#8080FF" transform="translate(239,219)"/>
<path d="" fill="#5555FF" transform="translate(0,0)"/>
<path d="" fill="#6A6AFF" transform="translate(0,0)"/>
<path d="" fill="#6A6AFF" transform="translate(0,0)"/>
<path d="" fill="#5555FF" transform="translate(0,0)"/>
<path d="" fill="#557FFF" transform="translate(0,0)"/>
<path d="" fill="#6A6AFF" transform="translate(0,0)"/>
<path d="" fill="#5555FF" transform="translate(0,0)"/>
<path d="" fill="#6A6AFF" transform="translate(0,0)"/>
<path d="" fill="#6A6AFF" transform="translate(0,0)"/>
<path d="" fill="#5555FF" transform="translate(0,0)"/>
<path d="" fill="#6A6AFF" transform="translate(0,0)"/>
<path d="" fill="#6A6AFF" transform="translate(0,0)"/>
<path d="" fill="#557FFF" transform="translate(0,0)"/>
<path d="" fill="#6A6AFF" transform="translate(0,0)"/>
<path d="" fill="#5555FF" transform="translate(0,0)"/>
<path d="" fill="#6A6AFF" transform="translate(0,0)"/>
<path d="" fill="#6A6AFF" transform="translate(0,0)"/>
<path d="" fill="#5555FF" transform="translate(0,0)"/>
<path d="" fill="#5555D4" transform="translate(0,0)"/>
<path d="" fill="#5555FF" transform="translate(0,0)"/>
<path d="" fill="#5555FF" transform="translate(0,0)"/>
<path d="" fill="#8080FF" transform="translate(0,0)"/>
<path d="" fill="#6A6AFF" transform="translate(0,0)"/>
<path d="" fill="#6A6AFF" transform="translate(0,0)"/>
<path d="" fill="#5555FF" transform="translate(0,0)"/>
<path d="" fill="#5555FF" transform="translate(0,0)"/>
<path d="" fill="#6A6AFF" transform="translate(0,0)"/>
<path d="" fill="#6A6AFF" transform="translate(0,0)"/>
<path d="" fill="#6A6AFF" transform="translate(0,0)"/>
<path d="" fill="#5555FF" transform="translate(0,0)"/>
<path d="" fill="#4040FF" transform="translate(0,0)"/>
<path d="" fill="#6A6AFF" transform="translate(0,0)"/>
<path d="" fill="#6AAAFF" transform="translate(0,0)"/>
<path d="" fill="#5555FF" transform="translate(0,0)"/>
<path d="" fill="#5555FF" transform="translate(0,0)"/>
<path d="M0 0 C2 1 2 1 2 1 Z " fill="#4040BF" transform="translate(417,94)"/>
<path d="M0 0 C2 1 2 1 2 1 Z " fill="#7F7FFF" transform="translate(239,94)"/>
<path d="M0 0 C2 1 2 1 2 1 Z " fill="#40BFFF" transform="translate(62,94)"/>
<path d="" fill="#8080FF" transform="translate(0,0)"/>
<path d="" fill="#00FFFF" transform="translate(0,0)"/>
<path d="" fill="#00FFFF" transform="translate(0,0)"/>
<path d="" fill="#8080FF" transform="translate(0,0)"/>
<path d="" fill="#8080FF" transform="translate(0,0)"/>
<path d="" fill="#0000FF" transform="translate(0,0)"/>
<path d="" fill="#8080FF" transform="translate(0,0)"/>
<path d="" fill="#8080FF" transform="translate(0,0)"/>
<path d="" fill="#8080FF" transform="translate(0,0)"/>
<path d="" fill="#8080FF" transform="translate(0,0)"/>
<path d="" fill="#4080FF" transform="translate(0,0)"/>
<path d="" fill="#8080FF" transform="translate(0,0)"/>
<path d="" fill="#4080FF" transform="translate(0,0)"/>
<path d="" fill="#6666CC" transform="translate(0,0)"/>
<path d="" fill="#4080FF" transform="translate(0,0)"/>
<path d="" fill="#8080FF" transform="translate(0,0)"/>
<path d="" fill="#4080FF" transform="translate(0,0)"/>
<path d="" fill="#4080FF" transform="translate(0,0)"/>
<path d="" fill="#4080FF" transform="translate(0,0)"/>
<path d="" fill="#4080FF" transform="translate(0,0)"/>
<path d="" fill="#55AAFF" transform="translate(0,0)"/>
<path d="" fill="#55AAFF" transform="translate(0,0)"/>
<path d="" fill="#5555FF" transform="translate(0,0)"/>
<path d="" fill="#5555AA" transform="translate(0,0)"/>
<path d="" fill="#00FFFF" transform="translate(0,0)"/>
<path d="" fill="#00FFFF" transform="translate(0,0)"/>
<path d="" fill="#8080FF" transform="translate(0,0)"/>
<path d="" fill="#8080FF" transform="translate(0,0)"/>
<path d="" fill="#5555FF" transform="translate(0,0)"/>
<path d="" fill="#4080FF" transform="translate(0,0)"/>
<path d="" fill="#5555FF" transform="translate(0,0)"/>
<path d="" fill="#40BFFF" transform="translate(0,0)"/>
<path d="" fill="#55AAFF" transform="translate(0,0)"/>
<path d="" fill="#4080FF" transform="translate(0,0)"/>
<path d="" fill="#55AAFF" transform="translate(0,0)"/>
<path d="" fill="#8080FF" transform="translate(0,0)"/>
<path d="" fill="#4040FF" transform="translate(0,0)"/>
<path d="" fill="#8080FF" transform="translate(0,0)"/>
<path d="" fill="#4080FF" transform="translate(0,0)"/>
<path d="" fill="#8080FF" transform="translate(0,0)"/>
<path d="" fill="#4080FF" transform="translate(0,0)"/>
<path d="" fill="#4080FF" transform="translate(0,0)"/>
<path d="" fill="#4080FF" transform="translate(0,0)"/>
<path d="" fill="#4080FF" transform="translate(0,0)"/>
<path d="" fill="#8080FF" transform="translate(0,0)"/>
<path d="" fill="#4080FF" transform="translate(0,0)"/>
<path d="" fill="#4080FF" transform="translate(0,0)"/>
<path d="" fill="#55AAFF" transform="translate(0,0)"/>
<path d="" fill="#8080FF" transform="translate(0,0)"/>
<path d="" fill="#55AAFF" transform="translate(0,0)"/>
<path d="" fill="#4080FF" transform="translate(0,0)"/>
<path d="" fill="#5555AA" transform="translate(0,0)"/>
<path d="" fill="#8080FF" transform="translate(0,0)"/>
<path d="" fill="#5555AA" transform="translate(0,0)"/>
<path d="" fill="#8080FF" transform="translate(0,0)"/>
<path d="" fill="#4080FF" transform="translate(0,0)"/>
<path d="" fill="#8080FF" transform="translate(0,0)"/>
<path d="" fill="#4080FF" transform="translate(0,0)"/>
<path d="" fill="#8080FF" transform="translate(0,0)"/>
<path d="" fill="#8080FF" transform="translate(0,0)"/>
<path d="" fill="#5555FF" transform="translate(0,0)"/>
<path d="" fill="#8080FF" transform="translate(0,0)"/>
<path d="" fill="#55AAFF" transform="translate(0,0)"/>
<path d="" fill="#8080FF" transform="translate(0,0)"/>
<path d="" fill="#55AAFF" transform="translate(0,0)"/>
<path d="" fill="#4040FF" transform="translate(0,0)"/>
<path d="" fill="#4080FF" transform="translate(0,0)"/>
<path d="" fill="#8080FF" transform="translate(0,0)"/>
<path d="" fill="#8080FF" transform="translate(0,0)"/>
<path d="" fill="#FFFFFF" transform="translate(0,0)"/>
<path d="" fill="#55AAFF" transform="translate(0,0)"/>
<path d="" fill="#000000" transform="translate(0,0)"/>
<path d="" fill="#0000FF" transform="translate(0,0)"/>
<path d="" fill="#FFFFFF" transform="translate(0,0)"/>
<path d="" fill="#8080FF" transform="translate(0,0)"/>
<path d="" fill="#8080FF" transform="translate(0,0)"/>
<path d="" fill="#8080FF" transform="translate(0,0)"/>
<path d="" fill="#4040FF" transform="translate(0,0)"/>
<path d="" fill="#55AAFF" transform="translate(0,0)"/>
<path d="" fill="#8080FF" transform="translate(0,0)"/>
<path d="" fill="#5555FF" transform="translate(0,0)"/>
<path d="" fill="#8080FF" transform="translate(0,0)"/>
<path d="" fill="#5555FF" transform="translate(0,0)"/>
<path d="" fill="#8080FF" transform="translate(0,0)"/>
<path d="" fill="#8080FF" transform="translate(0,0)"/>
<path d="" fill="#4080FF" transform="translate(0,0)"/>
<path d="" fill="#8080FF" transform="translate(0,0)"/>
<path d="" fill="#8080FF" transform="translate(0,0)"/>
<path d="" fill="#4080FF" transform="translate(0,0)"/>
<path d="" fill="#8080FF" transform="translate(0,0)"/>
<path d="" fill="#8080FF" transform="translate(0,0)"/>
<path d="" fill="#8080FF" transform="translate(0,0)"/>
<path d="" fill="#8080FF" transform="translate(0,0)"/>
<path d="" fill="#4080FF" transform="translate(0,0)"/>
<path d="" fill="#55AAFF" transform="translate(0,0)"/>
<path d="" fill="#6666FF" transform="translate(0,0)"/>
<path d="" fill="#5555FF" transform="translate(0,0)"/>
<path d="" fill="#4080FF" transform="translate(0,0)"/>
<path d="" fill="#4080FF" transform="translate(0,0)"/>
<path d="" fill="#8080FF" transform="translate(0,0)"/>
<path d="" fill="#4080FF" transform="translate(0,0)"/>
<path d="" fill="#8080FF" transform="translate(0,0)"/>
<path d="" fill="#4080FF" transform="translate(0,0)"/>
<path d="" fill="#4080FF" transform="translate(0,0)"/>
<path d="" fill="#4080FF" transform="translate(0,0)"/>
<path d="" fill="#4080FF" transform="translate(0,0)"/>
<path d="" fill="#8080FF" transform="translate(0,0)"/>
<path d="" fill="#4080FF" transform="translate(0,0)"/>
<path d="" fill="#4080FF" transform="translate(0,0)"/>
<path d="" fill="#55AAFF" transform="translate(0,0)"/>
<path d="" fill="#4080FF" transform="translate(0,0)"/>
<path d="" fill="#55AAFF" transform="translate(0,0)"/>
<path d="" fill="#40BFFF" transform="translate(0,0)"/>
<path d="" fill="#5555FF" transform="translate(0,0)"/>
<path d="" fill="#3366CC" transform="translate(0,0)"/>
<path d="" fill="#8080FF" transform="translate(0,0)"/>
<path d="" fill="#8080FF" transform="translate(0,0)"/>
<path d="" fill="#0000FF" transform="translate(0,0)"/>
<path d="" fill="#0000FF" transform="translate(0,0)"/>
<path d="" fill="#00FFFF" transform="translate(0,0)"/>
<path d="" fill="#8080FF" transform="translate(0,0)"/>
<path d="" fill="#8080FF" transform="translate(0,0)"/>
<path d="" fill="#8080FF" transform="translate(0,0)"/>
<path d="" fill="#8080FF" transform="translate(0,0)"/>
<path d="" fill="#4080FF" transform="translate(0,0)"/>
<path d="" fill="#4080FF" transform="translate(0,0)"/>
<path d="" fill="#4080FF" transform="translate(0,0)"/>
<path d="" fill="#3366FF" transform="translate(0,0)"/>
<path d="" fill="#4080FF" transform="translate(0,0)"/>
<path d="" fill="#4080FF" transform="translate(0,0)"/>
<path d="" fill="#8080FF" transform="translate(0,0)"/>
<path d="" fill="#4080FF" transform="translate(0,0)"/>
<path d="" fill="#4080FF" transform="translate(0,0)"/>
<path d="" fill="#8080FF" transform="translate(0,0)"/>
<path d="" fill="#55AAFF" transform="translate(0,0)"/>
<path d="" fill="#8080FF" transform="translate(0,0)"/>
<path d="" fill="#5555FF" transform="translate(0,0)"/>
<path d="" fill="#5555FF" transform="translate(0,0)"/>
<path d="" fill="#5555FF" transform="translate(0,0)"/>
<path d="" fill="#5555FF" transform="translate(0,0)"/>
<path d="" fill="#0000FF" transform="translate(0,0)"/>
<path d="" fill="#5555FF" transform="translate(0,0)"/>
<path d="" fill="#FFFFFF" transform="translate(0,0)"/>
<path d="" fill="#808080" transform="translate(0,0)"/>
</svg>
